<?xml version="1.0" encoding="UTF-8"?>
<svg width="700pt" height="700pt" version="1.1" viewBox="0 0 700 700" xmlns="http://www.w3.org/2000/svg" xmlns:xlink="http://www.w3.org/1999/xlink">
 
 <g>
  <path style="stroke: white; fill: white" d="m601.27 339.84c-9.6094-33.062-27.367-34.199-31.188-35.094-0.44141-0.10547-0.89063-0.19531-1.3438-0.28516-11.598-10.719-3.6797-55.457-3.6797-55.457 0-68.191-46.129-61.48-46.129-61.48-0.56641-0.027343-1.1211-0.050781-1.6758-0.074219-0.54687 0.015626-1.1094 0.039063-1.6758 0.074219 0 0-46.121-6.707-46.121 61.48 0 0 7.918 44.738-3.6836 55.457-0.45312 0.089844-0.89453 0.17969-1.3398 0.28516-2.2852 0.53125-9.5312 1.1602-17.051 8.6016 9.2773 9.1094 16.469 22.281 21.477 39.508 1.5391 5.3242 1.7695 10.941 0.74609 16.27 14.824 2.5586 32.094 3.5508 47.656 3.5508 33.473 0.003906 74.871-4.5742 82.746-19.465 2.1055-4.0078 2.5664-8.8867 1.2617-13.371zm-52.68-37.613c-0.15234 1.2383-0.70703 2.4531-1.6016 3.5898-4.168 5.3359-15.902 13.043-29.73 13.043-13.832 0-25.562-7.707-29.742-13.043-0.89062-1.1367-1.4453-2.3516-1.5898-3.5898v-0.011718c0.20703-0.066407 0.6875-0.23438 1.3086-0.52734 0.26172-0.11719 0.54688-0.25391 0.84375-0.41016 2.5195-1.3281 6.2383-4.0977 6.2383-8.9648h0.003907c3.9922 3.9492 8.4336 7.0859 13.176 8.9648 3.1797 1.2656 6.5078 1.9727 9.9219 1.9727s6.7422-0.70703 9.9297-1.9727c4.6914-1.8633 9.0938-4.957 13.055-8.8555 0.035156 0.003906 0.054688 0.023437 0.085938 0.035156 0.10156 6.2734 6.3945 9.0234 8.0938 9.6602 0.011718 0.027344 0.007812 0.066407 0.007812 0.10938zm7.2773-46.5c-0.62109 3.5352-2.0039 6.4531-3.4766 7.6992-0.58203 0.49219-1.1875 0.72656-1.7539 0.62891-0.33203-0.054687-0.62109-0.21875-0.88672-0.46484-3.2383 10.074-9.4297 20.105-17.246 26.141-4.5547 3.5156-9.6719 5.6719-15.07 5.6719-5.4336 0-10.574-2.1914-15.152-5.7383-7.7734-6.043-13.934-16.039-17.152-26.074-0.26953 0.24219-0.55859 0.40234-0.87891 0.46484-0.66797 0.11719-1.3711-0.21875-2.043-0.89453-1.3672-1.3594-2.6133-4.1211-3.2031-7.4297-0.78516-4.3555-0.15625-8.1992 1.3711-9.3008 0.20703-0.15234 0.42969-0.25391 0.67188-0.29297 0.55469-0.09375 1.1328 0.11328 1.6914 0.57031 0 0 0.003906-0.042969 0.015624-0.13281 0.19141-1.8945 2.7148-23.102 18.586-21.633l48.559 24.992 3.9414-3.8008c0.13281 0.023438 0.26953 0.066406 0.39062 0.12891 1.7266 0.80859 2.4688 4.8516 1.6367 9.4648z"/>
  <path style="stroke: white; fill: white" d="m250.36 311.3c-6.6641-5.5234-12.734-6.082-14.789-6.5586-0.44141-0.10547-0.89062-0.19531-1.3438-0.28516-11.598-10.719-3.6797-55.457-3.6797-55.457 0-68.191-46.129-61.48-46.129-61.48-0.56641-0.027344-1.1211-0.050781-1.668-0.074219-0.55469 0.015625-1.1094 0.039063-1.6758 0.074219 0 0-46.129-6.707-46.129 61.48 0 0 7.918 44.738-3.6836 55.457-0.45312 0.089844-0.90234 0.17969-1.3438 0.28516-3.8242 0.89062-21.582 2.0273-31.191 35.094-1.3008 4.4922-0.83984 9.3672 1.2773 13.371 7.875 14.887 49.273 19.473 82.738 19.465 14.066 0 29.527-0.8125 43.32-2.8555-1.1797-5.5391-1.0234-11.414 0.58203-16.973 5.4102-18.566 13.348-32.418 23.715-41.543zm-36.281-9.0742c-0.15234 1.2383-0.69922 2.4531-1.5977 3.5898-4.1719 5.3359-15.902 13.043-29.73 13.043-13.832 0-25.562-7.707-29.742-13.043-0.89062-1.1367-1.4375-2.3516-1.5898-3.5898v-0.011718c0.21094-0.066407 0.6875-0.23438 1.3164-0.52734 0.25781-0.11719 0.54688-0.25391 0.84375-0.41016 2.5273-1.3281 6.2422-4.0977 6.2422-8.9648 3.9922 3.9492 8.4336 7.0859 13.176 8.9648 3.1875 1.2656 6.5117 1.9727 9.9219 1.9727 3.4141 0 6.7422-0.70703 9.9297-1.9727 4.6914-1.8633 9.1016-4.957 13.059-8.8555 0.027344 0.003906 0.050781 0.023437 0.078125 0.035156 0.10156 6.2734 6.3945 9.0234 8.0977 9.6602 0 0.027344 0 0.066407-0.003906 0.10938zm7.2852-46.5c-0.62891 3.5352-2.0117 6.4531-3.4766 7.6992-0.58984 0.49219-1.1875 0.72656-1.7578 0.62891-0.32422-0.054687-0.62109-0.21875-0.88672-0.46484-3.2422 10.074-9.4375 20.105-17.246 26.141-4.5586 3.5156-9.6719 5.6719-15.07 5.6719-5.4336 0-10.574-2.1914-15.152-5.7383-7.7734-6.043-13.934-16.039-17.16-26.074-0.26172 0.24219-0.55859 0.40234-0.88672 0.46484-0.66797 0.11719-1.3711-0.21875-2.043-0.89453-1.3672-1.3594-2.6094-4.1211-3.2031-7.4297-0.77734-4.3555-0.16406-8.1992 1.3711-9.3008 0.21094-0.15234 0.4375-0.25391 0.67578-0.29297 0.55469-0.09375 1.125 0.11328 1.6875 0.57031 0 0 0.003906-0.042969 0.015625-0.13281 0.19141-1.8945 2.7148-23.102 18.586-21.633l48.559 24.992 3.9375-3.8008c0.14062 0.023438 0.26953 0.066406 0.39844 0.12891 1.7344 0.80859 2.4805 4.8516 1.6523 9.4648z"/>
  <path style="stroke: white; fill: white" d="m417.5 309.46c-9.9297-2.3242-21.965-1.3398-28.379-3.3477-1.1211 9.4023-19.219 16.883-41.363 16.883-22.152 0-40.242-7.4805-41.367-16.883-6.418 2.0117-18.445 1.0234-28.379 3.3477-5.0469 1.1758-28.488 2.6836-41.176 46.336-1.7188 5.9297-1.1133 12.363 1.6875 17.652 10.383 19.633 64.961 25.691 109.13 25.691h0.11719 0.11328c44.168 0 98.746-6.0547 109.13-25.691 2.8008-5.2852 3.4062-11.73 1.6914-17.652-12.707-43.66-36.16-45.16-41.203-46.336z"/>
  <path style="stroke: white; fill: white" d="m296.61 259.66c4.6758 12.578 12.074 24.797 21.23 33.73 5.1797 5.0625 10.922 9.0703 17.039 11.504 4.207 1.668 8.5977 2.5938 13.109 2.5938 4.5078 0 8.8984-0.92578 13.105-2.5938 6.3398-2.5078 12.266-6.707 17.586-12.027 8.9336-8.9102 16.152-20.938 20.727-33.305 3.5273-1.043 7.2227-7.6445 8.7305-16.078 1.6367-9.1562 0.089844-17.141-3.4375-18.469 0.125-2.2344 0.20703-4.4922 0.20703-6.8086-0.089844-33.18-19.531-55.086-50.211-57.141-26.734-1.793-46.891 8.832-56.062 26.488-3.0859 5.9453-4.8477 15.992-5.5273 24.07-1.0234 4.207-1.6367 8.5742-1.6367 13.094h0.10156c0 0.035156-0.003907 0.066406-0.011719 0.10156-0.066406 0.011719-0.12891 0.011719-0.19531 0.027344-3.9141 0.67578-5.6914 9.0234-3.9766 18.637 1.5625 8.8281 5.5508 15.652 9.2227 16.176zm0.88672-24.727c0.375-1.125 0.89062-2.0039 1.5469-2.4766 0.27344-0.20312 0.57812-0.33203 0.89062-0.38672 0.72656-0.12891 1.4883 0.15234 2.2344 0.75781 0.003906-0.0625 0.011719-0.11719 0.015625-0.17969 0.25781-2.4922 3.5859-24.277 24.543-22.328 0 0 18.379 6.7578 35.105 0.78516 1.7969-0.035156 3.5508-0.050781 5.1758 0.011719 6.9258 0.25391 11.672 3.8477 16.637 6.1602-0.18359-2.2773-1.9414-4.625-1.8477-6.1602 0.79688 0.23047 1.5195 0.56641 2.2109 0.93359 3.5781 3.8086 7.0391 10.199 9.7891 20.648 0.003907 0.042969 0.011719 0.089844 0.011719 0.13281 0.011719 0 0.011719-0.011719 0.023438-0.015625 0 0.003906 0.003906 0.003906 0.003906 0.015625l0.039062-0.050781c0.72266-0.57031 1.4688-0.82812 2.1797-0.70703 0.17969 0.035157 0.35156 0.089844 0.51953 0.16406 2.2852 1.0742 3.2656 6.418 2.1797 12.504-0.82812 4.6719-2.6602 8.5195-4.5977 10.152-0.77734 0.66016-1.5664 0.96875-2.3281 0.83594-0.42578-0.074218-0.81641-0.28516-1.1641-0.60547-4.2383 13.188-12.312 26.336-22.52 34.324-6.082 4.7617-12.918 7.6875-20.145 7.6875-7.0664 0-13.766-2.8047-19.75-7.3789-10.383-7.9531-18.613-21.262-22.914-34.629-0.35156 0.33203-0.73438 0.53125-1.1641 0.60938-0.87891 0.15234-1.8086-0.28516-2.6992-1.1758-1.7969-1.7969-3.4453-5.4414-4.2227-9.8125-0.050781-0.29297-0.078125-0.57031-0.11719-0.85156 0.027343-3.0664 0.15625-6.0273 0.36328-8.9648z"/>
  <use x="70" y="644" xlink:href="#x"/>
  <use x="90.550781" y="644" xlink:href="#d"/>
  <use x="104.359375" y="644" xlink:href="#a"/>
  <use x="123.347656" y="644" xlink:href="#l"/>
  <use x="142.242188" y="644" xlink:href="#c"/>
  <use x="155.628906" y="644" xlink:href="#a"/>
  <use x="174.617188" y="644" xlink:href="#k"/>
  <use x="204.410156" y="644" xlink:href="#j"/>
  <use x="224.453125" y="644" xlink:href="#i"/>
  <use x="252.453125" y="644" xlink:href="#h"/>
  <use x="283.335938" y="644" xlink:href="#w"/>
  <use x="292.933594" y="644" xlink:href="#v"/>
  <use x="302.53125" y="644" xlink:href="#g"/>
  <use x="319.195312" y="644" xlink:href="#b"/>
  <use x="338.433594" y="644" xlink:href="#f"/>
  <use x="368.117188" y="644" xlink:href="#u"/>
  <use x="378.53125" y="644" xlink:href="#b"/>
  <use x="397.769531" y="644" xlink:href="#g"/>
  <use x="414.4375" y="644" xlink:href="#a"/>
  <use x="433.425781" y="644" xlink:href="#t"/>
  <use x="453.46875" y="644" xlink:href="#e"/>
  <use x="70" y="672" xlink:href="#s"/>
  <use x="82.183594" y="672" xlink:href="#d"/>
  <use x="95.992188" y="672" xlink:href="#b"/>
  <use x="115.226562" y="672" xlink:href="#r"/>
  <use x="154.152344" y="672" xlink:href="#c"/>
  <use x="167.535156" y="672" xlink:href="#e"/>
  <use x="187.46875" y="672" xlink:href="#a"/>
  <use x="216.207031" y="672" xlink:href="#q"/>
  <use x="239.640625" y="672" xlink:href="#b"/>
  <use x="258.878906" y="672" xlink:href="#p"/>
  <use x="278.8125" y="672" xlink:href="#f"/>
  <use x="308.492188" y="672" xlink:href="#o"/>
  <use x="329.015625" y="672" xlink:href="#d"/>
  <use x="342.820312" y="672" xlink:href="#b"/>
  <use x="362.058594" y="672" xlink:href="#n"/>
  <use x="371.65625" y="672" xlink:href="#a"/>
  <use x="390.648438" y="672" xlink:href="#m"/>
  <use x="407.242188" y="672" xlink:href="#c"/>
 </g>
</svg>
